 http://veryrare.org

title: NYC, NY, USA
venue: Pier 84
date: 07/06/83
discs: 2
time: 89:29
source: SBD(?)> unknown cass gen>CDR(x)>EAC>Flac Level 6 (asb)


disc1: 72:19
1.intro			1:50
2.Pick Myself Up	4:33
3.African		5:01
4.Coming In Hot		4:08
5.Not Gonna Give It Up	6:13
6.Rastafari Is		11:35
7.Where You Gonna Run?	5:47
8.Don't Look Back	5:12
9.Glasshouse		5:23
10.Ketchy Shuby		2:00
11.Brand New Second Hand3:13
12.Bush Doctor		5:28
13.Johnny B. Goode	5:19
14.Get Up Stand Up	6:28

disc2: 17:10
1.400 Years		2:04
2.Equal Rights		2:13
3.Downpressor Man	4:29
4.Legalize It		8:23

comments:
Great show.....No flaws noted..All SB's checked ok with shntool and "traders little helper".

seeded to DAD by Tim Jones(chunga1) on 6-5-05
email: tjdrummer_77@hotmail.com

...DO NOT SELL....
...DO NOT ENCODE TO LOSSY FORMATS...

flac fingerprints

disc 1
Track01.flac:4f349cb57990ea40fa8455e567d26477
Track02.flac:c2bbb22b2709d7ca0f2a07f12e671004
Track03.flac:efb0428a61b7de944efdef5f1fca2a79
Track04.flac:38743d2fdb8468b3fd2785b5a2bfbe20
Track05.flac:0bfced5957c8106dde2759f058ac432b
Track06.flac:e7328ac584694fe84a87577e1c455ba5
Track07.flac:e6bab9fdf54c995628c21a8adc6868fe
Track08.flac:d5b971dbdb221ee3429e7551505ac752
Track09.flac:e032df119decd11dafb2d737608256fe
Track10.flac:916ef67fc2a27e3c9f53e98c9c1c8883
Track11.flac:4abb886490328ea3f484340e45101bb0
Track12.flac:cf6ae6926746917cd25907c87c8d1aef
Track13.flac:325bc26951bd19e9728652b12bf9d1ed
Track14.flac:fd9bf149cc5aa479927692d7d5a7aa7d

disc 2
Track01.flac:16f8d6a08cb73f33c40c23a0db32c553
Track02.flac:bed3490dbcd336ecad2057c27ae9c7fb
Track03.flac:9b3aa5e6231705db2f98a761662e9788
Track04.flac:b0eaba142765b50654d356beaef6453f

shntool results:
disc 1
    length     expanded size   cdr  WAVE problems filename
     
1:50.22       19455788    ---   --   ---xx   Track01.flac
     
4:33.55       48286604    ---   --   ---xx   Track02.flac
     
5:01.74       53270492    ---   --   ---xx   Track03.flac
     
4:08.64       43897772    ---   --   ---xx   Track04.flac
     
6:13.47       65907788    ---   --   ---xx   Track05.flac
    
11:35.26      122659196    ---   --   ---xx   Track06.flac
     
5:47.55       61340204    ---   --   ---xx   Track07.flac
    
 5:12.69       55199132    ---   --   ---xx   Track08.flac
     
5:23.27       57040748    ---   --   ---xx   Track09.flac
    
 2:00.69       21330332    ---   --   ---xx   Track10.flac
     
3:13.54       34172252    ---   --   ---xx   Track11.flac
     
5:28.69       58021532    ---   --   ---xx   Track12.flac
     
5:19.32       56346908    ---   --   ---xx   Track13.flac
     
6:28.18       68485580    ---   --   ---xx   Track14.flac
    
72:19.06         729.96 MB                    (totals for 14 files, 0.6799 overall compression ratio)


disc 2
    length     expanded size   cdr  WAVE problems filename
    
 2:04.22       21925388    ---   --   ---xx   Track01.flac
     
2:13.44       23564732    ---   --   ---xx   Track02.flac
     
4:29.27       47515148    ---   --   ---xx   Track03.flac
     
8:23.42       88828028    ---   --   ---xx   Track04.flac
    
17:10.60         173.41 MB                    (totals for 4 files, 0.6659 overall compression ratio)


